# xmcd
#
# Track frame offsets:
#	162
#	14460
#	29522
#	46257
#	64365
#	79872
#	96847
#	115215
#	129922
#	146632
#	162522
#	177975
#	194692
#	217597
#
# Disc length: 3116 seconds
#
# Revision: 0
# Processed by: cddbd v1.4PL0 Copyright (c) Steve Scherf et al.
# Submitted via: audiograbber 1.80
#
DISCID=c60c2a0e
DTITLE=Darja Svajger - V objemu noci
DYEAR=1900
DGENRE=
TTITLE0=New york, New york
TTITLE1=Pogresam te
TTITLE2=Sonce si
TTITLE3=Bodi veter
TTITLE4=On the sunny
TTITLE5=Pravljica
TTITLE6=Blue velvet
TTITLE7=Naj vidimo
TTITLE8=Tvoj obraz
TTITLE9=Fever
TTITLE10=OB MENI
TTITLE11=Ta dan
TTITLE12=Pawer of love
TTITLE13=Cabaret
EXTD=
EXTT0=
EXTT1=
EXTT2=
EXTT3=
EXTT4=
EXTT5=
EXTT6=
EXTT7=
EXTT8=
EXTT9=
EXTT10=
EXTT11=
EXTT12=
EXTT13=
PLAYORDER=
